<svg width="16" height="15" fill="none" xmlns="http://www.w3.org/2000/svg"><path d="m1 1 1.499.26.694 8.266c.055.675.62 1.194 1.297 1.191h7.86a1.297 1.297 0 0 0 1.286-1.114l.684-4.725a.967.967 0 0 0-.818-1.094c-.046-.007-10.763-.01-10.763-.01M9.196 6.437h1.998" stroke="#000" stroke-width="1.5" stroke-linecap="round" stroke-linejoin="round"/><path fill-rule="evenodd" clip-rule="evenodd" d="M4.174 13.215a.392.392 0 1 1 0 .784.392.392 0 0 1 0-.784ZM12.302 13.215a.393.393 0 1 1 0 .785.393.393 0 0 1 0-.785Z" fill="#000" stroke="#000" stroke-width="1.5" stroke-linecap="round" stroke-linejoin="round"/></svg>