<svg xmlns="http://www.w3.org/2000/svg" viewBox="0 0 256 256" fill="#fff"><path d="M183.04 94A39.987 39.987 0 0 0 162 20.001H94a39.987 39.987 0 0 0-21.04 74A39.964 39.964 0 0 0 72.961 162 39.992 39.992 0 1 0 134 196v-39.47A39.98 39.98 0 1 0 183.04 94ZM190 60.001a28.031 28.031 0 0 1-27.98 28L162 88l-.039.001L134 88V32.001h28a28.031 28.031 0 0 1 28 28Zm-124 0a28.031 28.031 0 0 1 28-28h28V88H93.981A28.031 28.031 0 0 1 66 60.001ZM66 128a28.031 28.031 0 0 1 27.981-28l.019.001h28v55.998L94 156a28.031 28.031 0 0 1-28-28Zm28 95.999A28 28 0 1 1 94 168h28v28a28.031 28.031 0 0 1-28 27.999ZM162 156a28 28 0 0 1-.039-55.999H162.02A28 28 0 0 1 162 156Z"/></svg>