<svg width="14" height="13" fill="none" xmlns="http://www.w3.org/2000/svg"><path d="M10.891 8.087a.753.753 0 0 0-.218.663l.608 3.367a.739.739 0 0 1-.308.738.753.753 0 0 1-.8.055l-3.03-1.58a.775.775 0 0 0-.342-.09h-.186a.555.555 0 0 0-.185.062L3.4 12.89a.8.8 0 0 1-.486.075.76.76 0 0 1-.61-.87l.61-3.366a.766.766 0 0 0-.218-.67L.225 5.665a.739.739 0 0 1-.184-.773.768.768 0 0 1 .608-.513l3.4-.494a.76.76 0 0 0 .603-.416L6.15.397a.712.712 0 0 1 .137-.185l.061-.048a.46.46 0 0 1 .11-.089l.075-.027L6.649 0h.288c.258.027.484.18.602.41l1.519 3.06a.76.76 0 0 0 .567.416l3.4.494c.288.04.528.24.623.513a.743.743 0 0 1-.198.773l-2.56 2.421Z" fill="#F90"/></svg>